sfk_cyclingleg_states
version=1
nRows=6
nColumns=53
inDegrees=yes

# SIMM Motion File Header:
name sfk_cyclingleg_states
datacolumns 53
datarows 6
otherdata 1
range 0.21462339 0.21539605
endheader
time	/jointset/bb/crank_angle/value	/jointset/bb/crank_angle/speed	/jointset/spindle/pedal_angle_r/value	/jointset/spindle/pedal_angle_r/speed	/jointset/ground_pelvis/pelvis_tilt/value	/jointset/ground_pelvis/pelvis_tilt/speed	/jointset/ground_pelvis/pelvis_list/value	/jointset/ground_pelvis/pelvis_list/speed	/jointset/ground_pelvis/pelvis_rotation/value	/jointset/ground_pelvis/pelvis_rotation/speed	/jointset/ground_pelvis/pelvis_tx/value	/jointset/ground_pelvis/pelvis_tx/speed	/jointset/ground_pelvis/pelvis_ty/value	/jointset/ground_pelvis/pelvis_ty/speed	/jointset/ground_pelvis/pelvis_tz/value	/jointset/ground_pelvis/pelvis_tz/speed	/jointset/hip_r/hip_angle_r/value	/jointset/hip_r/hip_angle_r/speed	/jointset/hip_r/hip_adduction_r/value	/jointset/hip_r/hip_adduction_r/speed	/jointset/hip_r/hip_rotation_r/value	/jointset/hip_r/hip_rotation_r/speed	/jointset/knee_r/knee_angle_r/value	/jointset/knee_r/knee_angle_r/speed	/jointset/knee_r/tib_tx_r/value	/jointset/knee_r/tib_tx_r/speed	/jointset/knee_r/tib_ty_r/value	/jointset/knee_r/tib_ty_r/speed	/jointset/tib_pat_r/pat_angle_r/value	/jointset/tib_pat_r/pat_angle_r/speed	/jointset/tib_pat_r/pat_tx_r/value	/jointset/tib_pat_r/pat_tx_r/speed	/jointset/tib_pat_r/pat_ty_r/value	/jointset/tib_pat_r/pat_ty_r/speed	/jointset/ankle_r/ankle_angle_r/value	/jointset/ankle_r/ankle_angle_r/speed	/jointset/subtalar_r/subtalar_angle_r/value	/jointset/subtalar_r/subtalar_angle_r/speed	/jointset/mtp_r/mtp_angle_r/value	/jointset/mtp_r/mtp_angle_r/speed	/forceset/bifemlh_r/activation	/forceset/bifemlh_r/fiber_length	/forceset/bifemsh_r/activation	/forceset/bifemsh_r/fiber_length	/forceset/glut_max2_r/activation	/forceset/glut_max2_r/fiber_length	/forceset/vas_int_r/activation	/forceset/vas_int_r/fiber_length	/forceset/med_gas_r/activation	/forceset/med_gas_r/fiber_length	/forceset/tib_ant_r/activation	/forceset/tib_ant_r/fiber_length
      0.21462339	   -113.18385950	   -480.13863232	    129.77144171	    537.50077988	      0.00000000	      0.00000000	     -0.00000000	     -0.00000000	     -0.00000000	      0.00000000	     -0.00000000	     -0.00000000	      0.00000000	      0.00000000	      0.00000000	      0.00000000	     57.39130014	   -209.57591346	      4.38477476	      0.07196192	      0.56663874	     20.24938469	    -62.25875498	    253.09393807	      0.00494711	     -0.01317897	     -0.47666010	      0.07882286	     17.43836832	     -4.12358747	      0.04213943	      0.07618488	     -0.02284186	     -0.00910516	     21.87936121	     13.32728496	      0.00000000	      0.00000000	     -0.00000000	     -0.00000000	     -0.13094064	      0.13504029	     -0.13094064	      0.16486978	     -0.13094064	      0.14317052	     -0.13094064	      0.13120022	     -0.13094064	      0.14509067	     -0.13094064	      0.11673282
      0.21477778	   -113.25798948	   -480.13863232	    129.85442242	    537.42851487	      0.00000000	      0.00000000	     -0.00000000	     -0.00000000	     -0.00000000	      0.00000000	     -0.00000000	     -0.00000000	      0.00000000	      0.00000000	      0.00000000	      0.00000000	     57.35894586	   -209.54030601	      4.38478571	      0.06979172	      0.56976457	     20.24238213	    -62.21969155	    252.93234623	      0.00494507	     -0.01323643	     -0.47664793	      0.07874863	     17.43773054	     -4.13811651	      0.04215118	      0.07611526	     -0.02284326	     -0.00910462	     21.88142309	     13.38234446	      0.00000000	      0.00000000	     -0.00000000	     -0.00000000	     -0.13096052	      0.13502945	     -0.13096052	      0.16489139	     -0.13096052	      0.14315022	     -0.13096052	      0.13117285	     -0.13096052	      0.14510453	     -0.13096052	      0.11673115
      0.21493254	   -113.33229363	   -480.13863232	    129.93758687	    537.35579495	      0.00000000	      0.00000000	     -0.00000000	     -0.00000000	     -0.00000000	      0.00000000	     -0.00000000	     -0.00000000	      0.00000000	      0.00000000	      0.00000000	      0.00000000	     57.32652111	   -209.50418372	      4.38479634	      0.06762040	      0.57289664	     20.23532205	    -62.18056142	    252.76975456	      0.00494302	     -0.01329387	     -0.47663575	      0.07867404	     17.43708902	     -4.15267447	      0.04216296	      0.07604536	     -0.02284467	     -0.00910398	     21.88349835	     13.43743698	      0.00000000	      0.00000000	     -0.00000000	     -0.00000000	     -0.13098045	      0.13501858	     -0.13098045	      0.16491303	     -0.13098045	      0.14312986	     -0.13098045	      0.13114542	     -0.13098045	      0.14511864	     -0.13098045	      0.11672948
      0.21508693	   -113.40642408	   -480.13863232	    130.02054569	    537.28295905	      0.00000000	      0.00000000	     -0.00000000	     -0.00000000	     -0.00000000	      0.00000000	     -0.00000000	     -0.00000000	      0.00000000	      0.00000000	      0.00000000	      0.00000000	     57.29417776	   -209.46771479	      4.38480661	      0.06545814	      0.57602030	     20.22823725	    -62.14154789	    252.60692248	      0.00494096	     -0.01335102	     -0.47662361	      0.07859945	     17.43644675	     -4.16719287	      0.04217469	      0.07597550	     -0.02284608	     -0.00910322	     21.88557725	     13.49230397	      0.00000000	      0.00000000	     -0.00000000	     -0.00000000	     -0.13100033	      0.13500773	     -0.13100033	      0.16493461	     -0.13100033	      0.14310954	     -0.13100033	      0.13111807	     -0.13100033	      0.14513251	     -0.13100033	      0.11672779
      0.21524166	   -113.48071283	   -480.13863232	    130.10367034	    537.20967956	      0.00000000	      0.00000000	     -0.00000000	     -0.00000000	     -0.00000000	      0.00000000	     -0.00000000	     -0.00000000	      0.00000000	      0.00000000	      0.00000000	      0.00000000	     57.26177103	   -209.43073511	      4.38481657	      0.06329528	      0.57914954	     20.22109580	    -62.10247631	    252.44311915	      0.00493889	     -0.01340813	     -0.47661145	      0.07852452	     17.43580086	     -4.18173641	      0.04218644	      0.07590537	     -0.02284749	     -0.00910236	     21.88766907	     13.54719054	      0.00000000	      0.00000000	     -0.00000000	     -0.00000000	     -0.13102025	      0.13499684	     -0.13102025	      0.16495624	     -0.13102025	      0.14308918	     -0.13102025	      0.13109067	     -0.13102025	      0.14514659	     -0.13102025	      0.11672610
      0.21539605	   -113.55484514	   -480.13863232	    130.18660863	    537.13626540	      0.00000000	      0.00000000	     -0.00000000	     -0.00000000	     -0.00000000	      0.00000000	     -0.00000000	     -0.00000000	      0.00000000	      0.00000000	      0.00000000	      0.00000000	     57.22943828	   -209.39340042	      4.38482618	      0.06114100	      0.58227108	     20.21392772	    -62.06351233	    252.27903674	      0.00493682	     -0.01346496	     -0.47659934	      0.07844957	     17.43515409	     -4.19624316	      0.04219816	      0.07583526	     -0.02284889	     -0.00910139	     21.88976495	     13.60186350	      0.00000000	      0.00000000	     -0.00000000	     -0.00000000	     -0.13104012	      0.13498598	     -0.13104012	      0.16497781	     -0.13104012	      0.14306885	     -0.13104012	      0.13106333	     -0.13104012	      0.14516045	     -0.13104012	      0.11672441
